<svg width="32" height="32" viewBox="0 0 32 32" xmlns="http://www.w3.org/2000/svg">
  <defs>
    <linearGradient id="modernGradient" x1="0%" y1="0%" x2="100%" y2="100%">
      <stop offset="0%" style="stop-color:#3B82F6;stop-opacity:1" />
      <stop offset="50%" style="stop-color:#1D4ED8;stop-opacity:1" />
      <stop offset="100%" style="stop-color:#1E40AF;stop-opacity:1" />
    </linearGradient>
    <linearGradient id="accentGradient" x1="0%" y1="0%" x2="100%" y2="100%">
      <stop offset="0%" style="stop-color:#10B981;stop-opacity:1" />
      <stop offset="100%" style="stop-color:#059669;stop-opacity:1" />
    </linearGradient>
    <linearGradient id="magicGradient" x1="0%" y1="0%" x2="100%" y2="100%">
      <stop offset="0%" style="stop-color:#8B5CF6;stop-opacity:1" />
      <stop offset="50%" style="stop-color:#3B82F6;stop-opacity:1" />
      <stop offset="100%" style="stop-color:#10B981;stop-opacity:1" />
    </linearGradient>
  </defs>
  
  <!-- Background circle with modern gradient -->
  <circle cx="16" cy="16" r="15" fill="url(#modernGradient)" stroke="#10B981" stroke-width="1"/>
  
  <!-- VisualCraft Studio Icon: Modern lens + AI + Frame -->
  <g transform="translate(16, 16)">
    <!-- Discovery lens (modern viewfinder) -->
    <circle cx="-6" cy="-6" r="4" fill="none" stroke="#ffffff" stroke-width="1.5" opacity="0.95"/>
    <circle cx="-6" cy="-6" r="2" fill="none" stroke="#10B981" stroke-width="1.2" opacity="0.9"/>
    
    <!-- AI enhancement brush stroke (more dynamic) -->
    <path d="M -2 -2 Q 3 0 7 -4 Q 9 -6 7 -8 Q 5 -6 0 -2 Z" fill="url(#accentGradient)" opacity="0.95"/>
    
    <!-- Modern print frame -->
    <rect x="2" y="2" width="8" height="6" rx="1.5" fill="none" stroke="#ffffff" stroke-width="1.5" opacity="0.95"/>
    <rect x="3" y="3" width="6" height="4" rx="1" fill="url(#magicGradient)" opacity="0.8"/>
    
    <!-- Modern AI sparkles -->
    <g opacity="0.95">
      <circle cx="-8" cy="8" r="1" fill="#10B981"/>
      <circle cx="8" cy="-8" r="0.8" fill="#8B5CF6"/>
      <circle cx="10" cy="6" r="0.6" fill="#60A5FA"/>
      <circle cx="-10" cy="-2" r="0.5" fill="#ffffff"/>
    </g>
    
    <!-- Modern "V" for VisualCraft -->
    <path d="M -1.5 -8 L 0 -4 L 1.5 -8" stroke="#ffffff" stroke-width="2.5" stroke-linecap="round" fill="none" opacity="0.95"/>
  </g>
</svg>